<svg xmlns="http://www.w3.org/2000/svg" width="180" height="50" viewBox="0 0 180 50">
  <defs>
    <style>
      .cls-1, .cls-2 {
        fill: #fff;
      }

      .cls-1 {
        opacity: 0;
      }
    </style>
  </defs>
  <g id="_logo" data-name="###logo" transform="translate(-656.253 -634.943)">
    <rect id="사각형_18" data-name="사각형 18" class="cls-1" width="180" height="50" transform="translate(656.253 634.943)"/>
    <path id="합치기_144" data-name="합치기 144" class="cls-2" d="M-7358.392,18969.053h-18.133l-12.563,0a.206.206,0,0,0,.062-.006c-.1.006-.209.01-.319.01a7.4,7.4,0,0,1-7.4-7.4,7.375,7.375,0,0,1,2.275-5.332,7.374,7.374,0,0,1,5.127-2.07h.133a12.836,12.836,0,0,1,12.687-10.893h.271a19.061,19.061,0,0,1,17.862-12.41,19.061,19.061,0,0,1,18.895,16.551c.038,0,.081,0,.119,0a10.783,10.783,0,0,1,10.783,10.783,10.764,10.764,0,0,1-6.094,9.691,10.74,10.74,0,0,1-4.689,1.086Zm0,0h0Zm-25.536-2.361h0Zm1.985-5.041a7.674,7.674,0,0,0-.148-1.49A7.674,7.674,0,0,1-7381.943,18961.65Zm-.148-1.494c0-.016,0-.029-.009-.043C-7382.1,18960.127-7382.1,18960.141-7382.091,18960.156Zm-.009-.043c0-.016,0-.029-.01-.043A.15.15,0,0,0-7382.1,18960.113Zm-.01-.053c0-.01,0-.02-.009-.033C-7382.114,18960.041-7382.114,18960.051-7382.11,18960.061Zm-.014-.043c0-.014,0-.023,0-.033C-7382.129,18959.994-7382.124,18960-7382.124,18960.018Zm-.009-.053a.155.155,0,0,1,0-.023A.155.155,0,0,0-7382.133,18959.965Zm-.01-.043a.041.041,0,0,1,0-.023A.041.041,0,0,0-7382.143,18959.922Zm-.014-.053a.016.016,0,0,0,0-.014A.016.016,0,0,1-7382.157,18959.869Zm-.01-.047a.014.014,0,0,1,0-.01A.014.014,0,0,0-7382.167,18959.822Zm18.486-4c0-.01,0-.02,0-.023S-7363.681,18955.809-7363.681,18955.818Zm-.01-.242c0-.01,0-.02,0-.029C-7363.7,18955.557-7363.691,18955.566-7363.691,18955.576Zm0-.086a.045.045,0,0,0,0-.023A.045.045,0,0,1-7363.7,18955.49Zm0-.086a.039.039,0,0,0,0-.02A.039.039,0,0,1-7363.7,18955.4Zm0-.08c0-.006,0-.016,0-.02S-7363.705,18955.318-7363.705,18955.324Zm-.019-.254,0,0Zm24.389-5.074c0-.219,0-.434-.015-.646C-7339.34,18949.563-7339.335,18949.781-7339.335,18950Zm-40.575,19.057h0Zm145.26-13.771a7.9,7.9,0,0,1,7.907-7.7c4.594,0,7.912,3.109,7.912,7.7v7.7h-3.884v-1.623a6.027,6.027,0,0,1-4.38,1.627C-7231.541,18962.982-7234.65,18959.875-7234.65,18955.281Zm3.951,0a3.926,3.926,0,0,0,3.956,4.027,3.88,3.88,0,0,0,3.956-4.027,3.838,3.838,0,0,0-3.956-4.023A3.882,3.882,0,0,0-7230.7,18955.281Zm-32.672.133a7.613,7.613,0,0,1,7.469-7.574c4.333,0,7.2,2.852,7.465,7.574v1.318h-11.269a3.849,3.849,0,0,0,3.8,2.914,3.609,3.609,0,0,0,2.866-1.318l4.6-.006a7.731,7.731,0,0,1-7.465,4.66A7.2,7.2,0,0,1-7263.371,18955.414Zm3.732-1.666h7.536a3.809,3.809,0,0,0-3.8-2.781A3.868,3.868,0,0,0-7259.638,18953.748Zm-10.031,9.234v-7.506c0-2.381-1.038-4.113-3.423-4.113-2.309,0-3.433,1.732-3.433,4.113v7.506h-4.042l0-20.223h4.046v6.508a4.887,4.887,0,0,1,4.161-1.686c4.18,0,6.646,2.682,6.646,7.895v7.506Zm-26.783-7.7a7.9,7.9,0,0,1,7.912-7.7,7.31,7.31,0,0,1,5.513,2.191l-2.613,2.613a4.248,4.248,0,0,0-2.9-1.129,3.879,3.879,0,0,0-3.956,4.023,3.923,3.923,0,0,0,3.956,4.027,4.138,4.138,0,0,0,2.828-1.2l2.613,2.543a7.526,7.526,0,0,1-5.441,2.332C-7293.129,18962.982-7296.452,18959.875-7296.452,18955.281Zm-6.408,7.7v-20.223h4.042v20.223Zm-18.88-7.7a7.9,7.9,0,0,1,7.912-7.7c4.594,0,7.912,3.109,7.912,7.7v7.7h-3.885v-1.623a6.027,6.027,0,0,1-4.38,1.627C-7318.632,18962.982-7321.74,18959.875-7321.74,18955.281Zm3.956,0a3.923,3.923,0,0,0,3.956,4.027,3.88,3.88,0,0,0,3.956-4.027,3.838,3.838,0,0,0-3.956-4.023A3.879,3.879,0,0,0-7317.784,18955.281Zm72.232,7.492v-8.5c0-3.4,1.942-6.412,6.951-6.412h2.133v3.408h-2.423a3.017,3.017,0,0,0-3.047,3.193v8.313Z" transform="translate(8054 -18292)"/>
  </g>
</svg>
