<svg xmlns="http://www.w3.org/2000/svg" width="180" height="50" viewBox="0 0 180 50">
    <defs>
        <style>
            .cls-4{fill:#3b45ff}
        </style>
    </defs>
    <g id="_logo" data-name="###logo" transform="translate(-656.253 -634.943)">
        <g id="그룹_1" data-name="그룹 1" transform="translate(657.253 638.943)">
            <path id="패스_1" data-name="패스 1" d="M663.656 718.511a7.395 7.395 0 1 0 7.4 7.4 7.373 7.373 0 0 0-7.4-7.4z" transform="translate(-656.253 -695.208)" style="fill:#528cff"/>
            <path id="패스_2" data-name="패스 2" d="M694.665 681.316a12.841 12.841 0 0 0-12.686 10.9 7.39 7.39 0 0 1 5.28 12.436 7.427 7.427 0 0 1-2.929 1.924l-.065.026c-.168.058-.34.106-.513.153-.078.021-.156.045-.235.064-.13.03-.263.053-.4.076s-.253.045-.381.061c-.106.013-.214.02-.321.028s-.207.023-.312.027h12.56a12.849 12.849 0 1 0 0-25.7z" transform="translate(-674.445 -668.906)" style="fill:#406eff"/>
            <path id="패스_3" data-name="패스 3" class="cls-4" d="M735.265 638.943a19.061 19.061 0 0 0-17.865 12.423 12.844 12.844 0 0 1-.269 25.685h18.136a19.054 19.054 0 1 0 0-38.109z" transform="translate(-696.909 -638.943)"/>
            <path id="패스_4" data-name="패스 4" d="M804.092 695.451h-.129a19.052 19.052 0 0 1-18.886 21.555h19.015a10.78 10.78 0 1 0 0-21.559z" transform="translate(-746.722 -678.901)" style="fill:#5b63f3"/>
        </g>
        <g id="그룹_3" data-name="그룹 3" transform="translate(732.261 650.761)">
            <g id="그룹_2" data-name="그룹 2">
                <path id="패스_5" data-name="패스 5" class="cls-4" d="M912.366 703.459a7.9 7.9 0 0 1 7.911-7.7c4.592 0 7.911 3.108 7.911 7.7v7.695H924.3v-1.619a6.035 6.035 0 0 1-4.38 1.624c-4.446 0-7.554-3.108-7.554-7.7zm11.867 0a3.838 3.838 0 0 0-3.955-4.025 3.879 3.879 0 0 0-3.956 4.025 3.922 3.922 0 0 0 3.956 4.027 3.879 3.879 0 0 0 3.955-4.027z" transform="translate(-912.366 -690.938)"/>
                <path id="패스_6" data-name="패스 6" class="cls-4" d="M976.836 679.3h4.042v20.22h-4.042z" transform="translate(-957.955 -679.297)"/>
                <path id="패스_7" data-name="패스 7" class="cls-4" d="M998.714 703.459a7.9 7.9 0 0 1 7.911-7.7 7.3 7.3 0 0 1 5.51 2.19l-2.614 2.614a4.242 4.242 0 0 0-2.9-1.13 3.879 3.879 0 0 0-3.956 4.025 3.922 3.922 0 0 0 3.956 4.027 4.131 4.131 0 0 0 2.826-1.2l2.613 2.543a7.534 7.534 0 0 1-5.439 2.331c-4.587 0-7.907-3.108-7.907-7.7z" transform="translate(-973.425 -690.938)"/>
                <path id="패스_8" data-name="패스 8" class="cls-4" d="M1052.942 679.3h4.042v6.5a4.888 4.888 0 0 1 4.164-1.685c4.177 0 6.646 2.679 6.646 7.892v7.507h-3.954v-7.507c0-2.381-1.038-4.113-3.42-4.113-2.309 0-3.435 1.732-3.435 4.113v7.507h-4.042z" transform="translate(-1011.771 -679.297)"/>
                <path id="패스_9" data-name="패스 9" class="cls-4" d="M1111.663 704.214a7.609 7.609 0 0 1 7.468-7.569c4.335 0 7.2 2.848 7.468 7.569v1.32h-11.269a3.848 3.848 0 0 0 3.8 2.917 3.606 3.606 0 0 0 2.867-1.32h4.6c-1.064 1.984-2.843 4.658-7.468 4.658a7.2 7.2 0 0 1-7.466-7.575zm11.269-1.666a3.809 3.809 0 0 0-3.8-2.778 3.865 3.865 0 0 0-3.734 2.778z" transform="translate(-1053.295 -691.564)"/>
                <path id="패스_10" data-name="패스 10" class="cls-4" d="M1172.5 703.114c0-3.4 1.945-6.414 6.952-6.414h2.132v3.408h-2.422a3.016 3.016 0 0 0-3.047 3.195v8.314h-3.615z" transform="translate(-1096.314 -691.603)"/>
                <path id="패스_11" data-name="패스 11" class="cls-4" d="M1209.722 703.459a7.9 7.9 0 0 1 7.911-7.7c4.592 0 7.911 3.108 7.911 7.7v7.695h-3.884v-1.619a6.035 6.035 0 0 1-4.38 1.624c-4.45 0-7.558-3.108-7.558-7.7zm11.867 0a3.839 3.839 0 0 0-3.955-4.025 3.879 3.879 0 0 0-3.956 4.025 3.922 3.922 0 0 0 3.956 4.027 3.879 3.879 0 0 0 3.955-4.027z" transform="translate(-1122.635 -690.938)"/>
            </g>
        </g>
    </g>
</svg>
