<svg xmlns="http://www.w3.org/2000/svg" width="60" height="60"><defs><style>.cls-2,.cls-3{fill:#fff}.cls-3{stroke:#0c254b;stroke-width:1.5px}.cls-6,.cls-7{stroke:none}.cls-7{fill:#0c254b}.cls-8{fill:none}</style></defs><g id="icon03" transform="translate(-290 -2708)"><g id="합치기_205" data-name="합치기 205" class="cls-2"><path class="cls-6" d="M-4438.637 6338.252H-4481a2.252 2.252 0 0 1-2.25-2.25v-27.441c0-1.24 1.01-2.25 2.25-2.25h10.666l.194-.457 1.75-4.104h17.144l1.749 4.104.194.457h10.666c1.24 0 2.249 1.01 2.249 2.25v27.441c0 1.24-1.009 2.25-2.25 2.25z" transform="translate(4776 -3584.002)"/><path class="cls-7" d="M-4438.637 6337.502c.826 0 1.499-.673 1.499-1.5v-27.441c0-.827-.673-1.5-1.5-1.5h-11.16l-1.944-4.561h-16.153l-1.943 4.56H-4481c-.827 0-1.5.674-1.5 1.501v27.441c0 .827.673 1.5 1.5 1.5h42.363m0 1.5H-4481a3 3 0 0 1-3-3v-27.441a3 3 0 0 1 3-3h10.17l1.944-4.561h18.136l1.943 4.56h10.17a3 3 0 0 1 2.999 3.001v27.441a3 3 0 0 1-3 3z" transform="translate(4776 -3584.002)"/></g><g id="사각형_1435" data-name="사각형 1435" class="cls-3" transform="translate(296.25 2718.998)"><rect class="cls-6" width="7" height="1.5" rx=".75"/><rect class="cls-8" x=".75" y=".75" width="5.5"/></g><g id="사각형_1434" data-name="사각형 1434" class="cls-3" transform="translate(304 2726)"><rect class="cls-6" width="24" height="24" rx="12"/><rect class="cls-8" x=".75" y=".75" width="22.5" height="22.5" rx="11.25"/></g><rect id="사각형_1436" data-name="사각형 1436" width="16" height="16" rx="8" transform="translate(308 2730)" style="fill:#5784ff"/><g id="icon03-2" data-name="icon03" transform="translate(-107.665 325.5)"><g id="합치기_128" data-name="합치기 128" class="cls-2"><path class="cls-6" d="M-11300.25 4931.499a.25.25 0 0 1-.25-.249v-3.5a.25.25 0 0 1 .499 0v3.5a.25.25 0 0 1-.249.249zm-3.999 0a.251.251 0 0 1-.252-.249v-3.5a.251.251 0 0 1 .501 0v3.5a.25.25 0 0 1-.249.249zm-4.002 0a.25.25 0 0 1-.249-.249v-3.5a.251.251 0 0 1 .501 0v3.5a.251.251 0 0 1-.252.249z" transform="translate(11748.666 -2508.5)"/><path class="cls-7" d="M-11300.25 4931.999a.749.749 0 0 1-.75-.749v-3.5a.749.749 0 1 1 1.499 0v3.5a.749.749 0 0 1-.749.749zm-3.999 0a.75.75 0 0 1-.752-.749v-3.5a.75.75 0 0 1 1.501 0v3.5a.749.749 0 0 1-.749.749zm-4.002 0a.75.75 0 0 1-.749-.749v-3.5a.75.75 0 0 1 1.501 0v3.5a.751.751 0 0 1-.752.749z" transform="translate(11748.666 -2508.5)"/></g><g id="합치기_136" data-name="합치기 136" class="cls-2"><path class="cls-6" d="M-11300.25 4931.499a.25.25 0 0 1-.25-.249v-3.5a.25.25 0 0 1 .499 0v3.5a.25.25 0 0 1-.249.249zm-3.999 0a.251.251 0 0 1-.252-.249v-3.5a.251.251 0 0 1 .501 0v3.5a.25.25 0 0 1-.249.249zm-4.002 0a.25.25 0 0 1-.249-.249v-3.5a.251.251 0 0 1 .501 0v3.5a.251.251 0 0 1-.252.249z" transform="translate(11748.666 -2491.5)"/><path class="cls-7" d="M-11300.25 4931.999a.749.749 0 0 1-.75-.749v-3.5a.749.749 0 1 1 1.499 0v3.5a.749.749 0 0 1-.749.749zm-3.999 0a.75.75 0 0 1-.752-.749v-3.5a.75.75 0 0 1 1.501 0v3.5a.749.749 0 0 1-.749.749zm-4.002 0a.75.75 0 0 1-.749-.749v-3.5a.75.75 0 0 1 1.501 0v3.5a.751.751 0 0 1-.752.749z" transform="translate(11748.666 -2491.5)"/></g><g id="합치기_137" data-name="합치기 137" class="cls-2"><path class="cls-6" d="M-11300.25 4931.499a.25.25 0 0 1-.25-.249v-3.5a.25.25 0 0 1 .499 0v3.5a.25.25 0 0 1-.249.249zm-3.999 0a.251.251 0 0 1-.252-.249v-3.5a.251.251 0 0 1 .501 0v3.5a.25.25 0 0 1-.249.249zm-4.002 0a.25.25 0 0 1-.249-.249v-3.5a.251.251 0 0 1 .501 0v3.5a.251.251 0 0 1-.252.249z" transform="rotate(90 -4175.417 9558.083)"/><path class="cls-7" d="M-11300.25 4931.999a.749.749 0 0 1-.75-.749v-3.5a.749.749 0 1 1 1.499 0v3.5a.749.749 0 0 1-.749.749zm-3.999 0a.75.75 0 0 1-.752-.749v-3.5a.75.75 0 0 1 1.501 0v3.5a.749.749 0 0 1-.749.749zm-4.002 0a.75.75 0 0 1-.749-.749v-3.5a.75.75 0 0 1 1.501 0v3.5a.751.751 0 0 1-.752.749z" transform="rotate(90 -4175.417 9558.083)"/></g><g id="합치기_138" data-name="합치기 138" class="cls-2"><path class="cls-6" d="M-11300.25 4931.499a.25.25 0 0 1-.25-.249v-3.5a.25.25 0 0 1 .499 0v3.5a.25.25 0 0 1-.249.249zm-3.999 0a.251.251 0 0 1-.252-.249v-3.5a.251.251 0 0 1 .501 0v3.5a.25.25 0 0 1-.249.249zm-4.002 0a.25.25 0 0 1-.249-.249v-3.5a.251.251 0 0 1 .501 0v3.5a.251.251 0 0 1-.252.249z" transform="rotate(90 -4183.917 9549.584)"/><path class="cls-7" d="M-11300.25 4931.999a.749.749 0 0 1-.75-.749v-3.5a.749.749 0 1 1 1.499 0v3.5a.749.749 0 0 1-.749.749zm-3.999 0a.75.75 0 0 1-.752-.749v-3.5a.75.75 0 0 1 1.501 0v3.5a.749.749 0 0 1-.749.749zm-4.002 0a.75.75 0 0 1-.749-.749v-3.5a.75.75 0 0 1 1.501 0v3.5a.751.751 0 0 1-.752.749z" transform="rotate(90 -4183.917 9549.584)"/></g><g id="사각형_1446" data-name="사각형 1446" class="cls-3" transform="translate(435.666 2420.5)"><rect class="cls-6" width="18" height="18" rx="3"/><rect class="cls-8" x=".75" y=".75" width="16.5" height="16.5" rx="2.25"/></g><text id="AI" transform="translate(444.666 2432.5)" style="fill:#0c254b;font-size:9px;font-family:AvenirNext-Bold,Avenir Next;font-weight:700"><tspan x="-4.712" y="0">AI</tspan></text></g></g></svg>