<svg xmlns="http://www.w3.org/2000/svg" width="60" height="60"><defs><style>.cls-2{fill:#fff}.cls-2,.cls-4{stroke:#0c254b;stroke-width:1.5px}.cls-3{fill:#0c254b}.cls-4,.cls-7{fill:none}.cls-4{stroke-linecap:round}.cls-6{stroke:none}</style></defs><g id="icon01" transform="translate(-422.667 -2407.5)"><g id="그룹_622" data-name="그룹 622" transform="translate(-18.001 -13.393)"><g id="사각형_1024" data-name="사각형 1024" class="cls-2" transform="translate(446.668 2426.893)"><rect class="cls-6" width="44" height="44" rx="22"/><rect class="cls-7" x=".75" y=".75" width="42.5" height="42.5" rx="21.25"/></g><circle id="타원_127" data-name="타원 127" class="cls-3" cx="2" cy="2" r="2" transform="translate(458.668 2442.893)"/><circle id="타원_128" data-name="타원 128" class="cls-3" cx="2" cy="2" r="2" transform="translate(474.668 2442.893)"/><path id="패스_326" data-name="패스 326" class="cls-4" d="M572.057 328.4a11.193 11.193 0 0 1-9.983 6.125h0a11.194 11.194 0 0 1-10.017-6.194" transform="translate(-93.389 2124.791)"/></g><path id="합치기_156" data-name="합치기 156" class="cls-3" d="M17328.666 12150.751v-4.5a.748.748 0 0 1 .748-.752h4.5a.75.75 0 0 1 0 1.5h-3.75v3.751a.75.75 0 0 1-1.5 0z" transform="translate(-16904 -9736)"/><path id="합치기_157" data-name="합치기 157" class="cls-3" d="M.752 5A.751.751 0 0 1 0 4.248v-4.5A.75.75 0 0 1 .752-1a.75.75 0 0 1 .751.75V3.5h3.749a.75.75 0 1 1 0 1.5z" transform="translate(424.663 2456.502)"/><path id="합치기_158" data-name="합치기 158" class="cls-3" d="M.752 5A.75.75 0 0 1 0 4.248v-4.5A.75.75 0 0 1 .752-1a.75.75 0 0 1 .75.75V3.5h3.75a.75.75 0 0 1 0 1.5z" transform="rotate(180 238.334 1207.249)"/><g id="그룹_811" data-name="그룹 811" transform="translate(8 10)"><g id="타원_306" data-name="타원 306" class="cls-2" transform="translate(444.667 2427.5)"><circle class="cls-6" cx="14" cy="14" r="14"/><circle class="cls-7" cx="14" cy="14" r="13.25"/></g><circle id="타원_309" data-name="타원 309" cx="9" cy="9" r="9" transform="translate(449.667 2432.5)" style="fill:#5784ff"/><path id="패스_722" data-name="패스 722" class="cls-4" d="m760.519-14322.945 3.381 3.365 4.029-5.5" transform="translate(-305.353 16764.084)"/></g></g></svg>