<svg xmlns="http://www.w3.org/2000/svg" width="60" height="60"><defs><style>.cls-2{fill:#fff;stroke:#0c254b;stroke-width:1.5px}.cls-7{fill:none}.cls-6,.cls-8{stroke:none}.cls-8{fill:#0c254b}</style></defs><g id="icon01" transform="translate(-422.667 -2407.5)"><g id="사각형_3501" data-name="사각형 3501" class="cls-2"><path class="cls-6" d="M.45 0h17.1a.45.45 0 0 1 .45.45V13a9 9 0 0 1-9 9 9 9 0 0 1-9-9V.45A.45.45 0 0 1 .45 0z" transform="translate(460.667 2418.5)"/><path class="cls-7" d="M.857.75h16.286a.107.107 0 0 1 .107.107V13A8.25 8.25 0 0 1 9 21.25 8.25 8.25 0 0 1 .75 13V.857A.107.107 0 0 1 .857.75z" transform="translate(460.667 2418.5)"/></g><g id="사각형_3500" data-name="사각형 3500" class="cls-2"><path class="cls-6" d="M.45 0h17.1a.45.45 0 0 1 .45.45V13a9 9 0 0 1-9 9 9 9 0 0 1-9-9V.45A.45.45 0 0 1 .45 0z" transform="translate(426.667 2418.5)"/><path class="cls-7" d="M.857.75h16.286a.107.107 0 0 1 .107.107V13A8.25 8.25 0 0 1 9 21.25 8.25 8.25 0 0 1 .75 13V.857A.107.107 0 0 1 .857.75z" transform="translate(426.667 2418.5)"/></g><g id="합치기_204" data-name="합치기 204" style="fill:#fff"><path class="cls-6" d="M-3827.334 6050.75h-10a.25.25 0 0 1-.249-.25v-8.466l-.525-.165a19.16 19.16 0 0 1-5.4-2.693 19.332 19.332 0 0 1-4.267-4.18 19.09 19.09 0 0 1-3.809-11.496v-22a.25.25 0 0 1 .251-.25h38a.25.25 0 0 1 .25.25v22c0 4.18-1.318 8.155-3.81 11.496a19.325 19.325 0 0 1-4.266 4.18 19.154 19.154 0 0 1-5.4 2.693l-.524.165v8.466a.251.251 0 0 1-.251.25z" transform="translate(4285 -3590)"/><path class="cls-8" d="M-3827.833 6050v-8.517l1.05-.33a18.408 18.408 0 0 0 5.188-2.588 18.583 18.583 0 0 0 4.102-4.018 18.346 18.346 0 0 0 3.66-11.047V6002h-37.001v21.5c0 4.017 1.266 7.838 3.66 11.048a18.582 18.582 0 0 0 4.102 4.018 18.4 18.4 0 0 0 5.189 2.587l1.05.33V6050h9m.499 1.5h-10a1 1 0 0 1-.999-1v-7.916c-8.115-2.548-14.001-10.128-14.001-19.084v-22a1 1 0 0 1 1.001-1h38a1 1 0 0 1 1 1v22c0 8.955-5.886 16.535-14 19.084v7.916a1 1 0 0 1-1.001 1z" transform="translate(4285 -3590)"/></g><g id="사각형_3498" data-name="사각형 3498" class="cls-2"><path class="cls-6" d="M6 0h22a6 6 0 0 1 6 6 2 2 0 0 1-2 2H2a2 2 0 0 1-2-2 6 6 0 0 1 6-6z" transform="translate(435.667 2457.5)"/><path class="cls-7" d="M6 .75h22A5.25 5.25 0 0 1 33.25 6 1.25 1.25 0 0 1 32 7.25H2A1.25 1.25 0 0 1 .75 6 5.25 5.25 0 0 1 6 .75z" transform="translate(435.667 2457.5)"/></g><circle id="타원_743" data-name="타원 743" cx="12" cy="12" r="12" transform="translate(440.667 2418.5)" style="fill:#5784ff"/><g id="다각형_121" data-name="다각형 121" style="fill:none"><path class="cls-6" d="M8.766 1.6a1 1 0 0 1 1.754 0l2.027 3.7a1 1 0 0 0 .7.5l4.179.744a1 1 0 0 1 .541 1.682l-2.913 2.99a1 1 0 0 0-.274.835l.569 4.118a1 1 0 0 1-1.418 1.041l-3.861-1.825a1 1 0 0 0-.855 0L5.354 17.21a1 1 0 0 1-1.418-1.041l.569-4.118a1 1 0 0 0-.274-.835L1.317 8.227a1 1 0 0 1 .541-1.682L6.037 5.8a1 1 0 0 0 .7-.5z" transform="translate(443.024 2420.5)"/><path class="cls-8" d="M9.643 3.12 8.054 6.019A2.489 2.489 0 0 1 6.3 7.278l-3.25.578 2.255 2.314c.542.556.792 1.317.686 2.087l-.442 3.202 3.025-1.43c.332-.157.702-.24 1.069-.24s.736.083 1.068.24l3.026 1.43-.442-3.202a2.48 2.48 0 0 1 .686-2.087l2.255-2.314-3.25-.578a2.489 2.489 0 0 1-1.755-1.26L9.643 3.121m0-2.04a.99.99 0 0 1 .877.519l2.027 3.697a1 1 0 0 0 .701.504l4.18.744a1 1 0 0 1 .54 1.682l-2.913 2.99a1 1 0 0 0-.274.835l.569 4.117a1 1 0 0 1-1.418 1.041l-3.862-1.825a1 1 0 0 0-.855 0l-3.86 1.825a1 1 0 0 1-1.419-1.04l.57-4.118a1 1 0 0 0-.275-.835l-2.914-2.99a1 1 0 0 1 .541-1.682l4.18-.744a1 1 0 0 0 .701-.504L8.766 1.6a.99.99 0 0 1 .877-.52z" transform="translate(443.024 2420.5)"/></g></g></svg>