<svg xmlns="http://www.w3.org/2000/svg" width="60" height="60"><defs><style>.cls-3{fill:#fff}.cls-6{stroke:none}</style></defs><g id="icon01" transform="translate(-420.667 -2405.5)"><g id="그룹_6499" data-name="그룹 6499"><g id="빼기_28" data-name="빼기 28" style="fill:none"><path class="cls-6" d="M-10703.307-150.5h-.027a16.89 16.89 0 0 1-12.021-4.979 16.887 16.887 0 0 1-4.979-12.019 16.891 16.891 0 0 1 4.979-12.022 16.887 16.887 0 0 1 12.021-4.979 16.887 16.887 0 0 1 12.021 4.979 16.891 16.891 0 0 1 4.979 12.022v.027a17.95 17.95 0 0 0-11.728 5.244 17.956 17.956 0 0 0-5.246 11.727z" transform="translate(11145 2594)"/><path d="M-10703.307-150.5v-.001a17.956 17.956 0 0 1 5.246-11.727 17.95 17.95 0 0 1 11.728-5.244v-.027a16.89 16.89 0 0 0-4.98-12.022 16.887 16.887 0 0 0-12.021-4.98 16.887 16.887 0 0 0-12.021 4.98 16.89 16.89 0 0 0-4.98 12.022c0 4.54 1.769 8.808 4.98 12.019a16.89 16.89 0 0 0 12.021 4.979h.027m1.5 1.612-1.567-.112a18.382 18.382 0 0 1-13.042-5.418 18.378 18.378 0 0 1-5.419-13.08c0-4.942 1.925-9.588 5.419-13.083a18.375 18.375 0 0 1 13.082-5.418c4.943 0 9.589 1.924 13.082 5.419a18.381 18.381 0 0 1 5.419 13.082v1.447l-1.418.078a16.454 16.454 0 0 0-10.749 4.806 16.455 16.455 0 0 0-4.807 10.709v1.57z" style="fill:#fff;stroke:none" transform="translate(11145 2594)"/></g><circle id="타원_127" data-name="타원 127" class="cls-3" cx="1.5" cy="1.5" r="1.5" transform="translate(433.666 2421.5)"/><circle id="타원_128" data-name="타원 128" class="cls-3" cx="1.5" cy="1.5" r="1.5" transform="translate(446.666 2421.5)"/><rect id="사각형_1437" data-name="사각형 1437" class="cls-3" width="14" height="1.5" rx=".75" transform="translate(434.666 2430.5)"/></g><g id="그룹_619" data-name="그룹 619"><g id="사각형_1024" data-name="사각형 1024" transform="translate(441.666 2426.5)" style="stroke:#fff;stroke-width:1.5px;fill:none"><rect class="cls-6" width="36" height="36" rx="18"/><rect x=".75" y=".75" width="34.5" height="34.5" rx="17.25" style="fill:none"/></g><circle id="타원_127-2" data-name="타원 127" class="cls-3" cx="1.5" cy="1.5" r="1.5" transform="translate(451.666 2439.5)"/><circle id="타원_128-2" data-name="타원 128" class="cls-3" cx="1.5" cy="1.5" r="1.5" transform="translate(464.666 2439.5)"/><path id="패스_326" data-name="패스 326" d="M566.058 328.378a7.836 7.836 0 0 1-6.988 4.288h0a7.837 7.837 0 0 1-7.013-4.336" transform="translate(-98.891 2119.099)" style="stroke-linecap:round;stroke:#fff;stroke-width:1.5px;fill:none"/></g></g></svg>