<svg xmlns="http://www.w3.org/2000/svg" width="30" height="30" viewBox="0 0 30 30">
    <path data-name="youtube" d="M21.826-3.641A2.792 2.792 0 0 0 19.862-5.6c-1.744-.477-8.72-.477-8.72-.477s-6.975 0-8.719.459A2.848 2.848 0 0 0 .459-3.641 29.418 29.418 0 0 0 0 1.72a29.31 29.31 0 0 0 .459 5.36 2.792 2.792 0 0 0 1.964 1.964c1.762.477 8.719.477 8.719.477s6.975 0 8.719-.459A2.792 2.792 0 0 0 21.826 7.1a29.427 29.427 0 0 0 .459-5.36 27.925 27.925 0 0 0-.459-5.381zm-12.9 8.7v-6.68l5.8 3.341zm0 0" transform="translate(3.715 13.081)" style="fill:#fff"/>
</svg>
