<svg xmlns="http://www.w3.org/2000/svg" width="30" height="30" viewBox="0 0 30 30">
    <g transform="translate(-1625.287 -5899.199)">
        <rect data-name="사각형 3826" width="20" height="20" rx="5" transform="translate(1630.287 5904.199)" style="fill:#fff"/>
        <g data-name="패스 7423" style="fill:none">
            <path d="M5.328 0A5.328 5.328 0 1 1 0 5.328 5.328 5.328 0 0 1 5.328 0z" style="stroke:none" transform="translate(1634.959 5908.871)"/>
            <path d="M5.328 2.5A2.831 2.831 0 0 0 2.5 5.328a2.831 2.831 0 0 0 2.828 2.828 2.831 2.831 0 0 0 2.828-2.828A2.831 2.831 0 0 0 5.328 2.5m0-2.5a5.328 5.328 0 1 1 0 10.656A5.328 5.328 0 0 1 5.328 0z" style="fill:#335fe8;stroke:none" transform="translate(1634.959 5908.871)"/>
        </g>
        <circle data-name="타원 810" cx="1.3" cy="1.3" r="1.3" transform="translate(1644.287 5907.199)" style="fill:#335fe8"/>
    </g>
</svg>
