<svg xmlns="http://www.w3.org/2000/svg" width="30" height="30" viewBox="0 0 30 30">
    <path data-name="linkedin" d="M-13983.6-5722.6h-3.641v-5.721c0-1.363-.027-3.11-1.9-3.11-1.9 0-2.188 1.479-2.188 3.012v5.819h-3.645v-11.75h3.5v1.6h.053a3.827 3.827 0 0 1 3.451-1.9c3.692 0 4.371 2.432 4.371 5.59v6.455zm-17.306 0v-11.75h3.647v11.75zm-.292-15.485a2.116 2.116 0 0 1 2.116-2.116 2.112 2.112 0 0 1 2.111 2.116 2.13 2.13 0 0 1-2.111 2.133 2.133 2.133 0 0 1-2.118-2.131z" transform="translate(14008.111 5745.198)" style="fill:#fff"/>
</svg>
