<svg xmlns="http://www.w3.org/2000/svg" width="120.696" height="30" viewBox="0 0 120.696 30">
    <g data-name="###logo2">
        <path data-name="합치기 5" d="M-1504.842-5654.289h-20.732.06c-.077 0-.155.005-.234.005a5 5 0 0 1-5-5 4.979 4.979 0 0 1 1.537-3.6 4.972 4.972 0 0 1 3.463-1.4h.09a8.674 8.674 0 0 1 8.567-7.357h.185a12.87 12.87 0 0 1 12.064-8.385 12.872 12.872 0 0 1 12.758 11.18h.083a7.281 7.281 0 0 1 7.281 7.279 7.277 7.277 0 0 1-4.114 6.549 7.251 7.251 0 0 1-3.167.731zm0 0zm3.622-.52a12.9 12.9 0 0 1-3.27.516 12.942 12.942 0 0 0 3.27-.514 12.874 12.874 0 0 0 9.241-12.007 12.874 12.874 0 0 1-9.241 12.005zm-20.874-1.076a5.109 5.109 0 0 1-.446.425 4.7 4.7 0 0 0 .446-.423 4.975 4.975 0 0 0 1.338-3.157 4.97 4.97 0 0 1-1.337 3.155zm1.346-3.5v-.03.029zm0-.122v-.037c-.005.012-.004.025-.004.036zm0-.061v-.039c-.008.012-.008.025-.007.038zm0-.062v-.041c-.012.014-.012.026-.011.041zm0-.057v-.047c-.017.015-.017.034-.015.047zm0-.06c0-.017 0-.034-.006-.05-.016.017-.015.033-.014.05zm-.007-.068v-.044c-.023.014-.021.029-.02.044zm-.007-.062a.427.427 0 0 0-.006-.045.427.427 0 0 1-.014.045zm-.007-.061c0-.016 0-.031-.007-.047-.017.016-.014.031-.013.047zm-.009-.064c0-.014 0-.03-.007-.045-.015.015-.015.03-.015.047zm-.01-.06c0-.016 0-.031-.007-.047-.017.016-.014.031-.012.047zm-.01-.065c0-.015 0-.027-.007-.042-.017.014-.015.027-.013.042zm-.011-.064c0-.013 0-.025-.007-.039-.017.013-.016.03-.013.038zm-.011-.06c0-.013 0-.027-.007-.04-.018.012-.016.026-.013.04zm-.011-.06c0-.014-.006-.027-.009-.04-.017.012-.014.025-.012.039zm-.014-.064-.009-.037zm-.014-.062-.009-.034zm-.014-.06-.009-.034zm-.016-.06-.009-.034zm-.017-.063a.219.219 0 0 0-.007-.03.219.219 0 0 1-.014.03zm-.017-.061a.185.185 0 0 0-.007-.026c-.019.007-.017.018-.014.026zm-.017-.06a.164.164 0 0 1-.007-.025.164.164 0 0 0-.014.025zm-.019-.06c0-.007 0-.015-.007-.023-.018.009-.017.016-.014.024zm-.02-.062c0-.006 0-.011-.006-.019s-.015.014-.015.02zm-.02-.059c0-.005 0-.011-.006-.016s-.016.012-.015.018zm-.021-.061a.1.1 0 0 1 0-.012.1.1 0 0 0-.021.014zm-.021-.057v-.01zm-.023-.062-.021.002zm12.673-1.867zm0 0v-.111c-.022.038-.022.08-.022.113zm0-.154v-.068c-.025.025-.023.047-.023.07zm0-.12v-.059c-.027.021-.027.041-.026.061zm0-.119zm0-.025v-.025c-.032.012-.032.019-.032.028zm-.006-.095v-.04c-.033.016-.031.03-.031.043zm-.007-.12a.174.174 0 0 0 0-.029.174.174 0 0 1-.032.031zm-.009-.107a.219.219 0 0 0 0-.031.219.219 0 0 1-.031.034zm-.01-.113v-.027c-.033.014-.033.021-.031.031zm-.011-.112v-.021c0-.006-.033.017-.031.024zm-.013-.111v-.019c0-.007-.033.016-.031.022zm-.016-.116v-.008c0-.003-.031.008-.031.011zm-10.882 9.869zm97.638-9.3a5.337 5.337 0 0 1 5.343-5.2 5.048 5.048 0 0 1 5.344 5.2v5.2h-2.624v-1.093a4.076 4.076 0 0 1-2.957 1.1 4.908 4.908 0 0 1-5.137-5.204zm2.671 0a2.65 2.65 0 0 0 2.671 2.721 2.622 2.622 0 0 0 2.673-2.721 2.593 2.593 0 0 0-2.673-2.717 2.619 2.619 0 0 0-2.702 2.72zm-22.067.09a5.137 5.137 0 0 1 5.043-5.112c2.928 0 4.864 1.921 5.043 5.112v.89h-7.611a2.6 2.6 0 0 0 2.567 1.97 2.439 2.439 0 0 0 1.937-.891h3.106a5.225 5.225 0 0 1-5.043 3.145 4.86 4.86 0 0 1-5.073-5.112zm2.522-1.126h5.089a2.572 2.572 0 0 0-2.567-1.877 2.611 2.611 0 0 0-2.553 1.88zm-6.777 6.236v-5.069c0-1.609-.7-2.777-2.309-2.777-1.56 0-2.319 1.167-2.319 2.777v5.069h-2.731v-13.656h2.731v4.4a3.3 3.3 0 0 1 2.813-1.139c2.821 0 4.486 1.809 4.486 5.33v5.069zm-18.085-5.2a5.336 5.336 0 0 1 5.343-5.2 4.926 4.926 0 0 1 3.722 1.479l-1.766 1.765a2.86 2.86 0 0 0-1.956-.763 2.619 2.619 0 0 0-2.671 2.717 2.65 2.65 0 0 0 2.671 2.721 2.784 2.784 0 0 0 1.907-.812l1.766 1.718a5.087 5.087 0 0 1-3.673 1.574 5.046 5.046 0 0 1-5.374-5.196zm-4.328 5.2v-13.656h2.73v13.656zm-12.752-5.2a5.338 5.338 0 0 1 5.344-5.2 5.048 5.048 0 0 1 5.343 5.2v5.2h-2.624v-1.093a4.075 4.075 0 0 1-2.958 1.1 4.908 4.908 0 0 1-5.136-5.204zm2.673 0a2.65 2.65 0 0 0 2.671 2.721 2.622 2.622 0 0 0 2.671-2.721 2.592 2.592 0 0 0-2.671-2.717 2.619 2.619 0 0 0-2.702 2.72zm48.782 5.062v-5.743c0-2.3 1.313-4.332 4.694-4.332h1.44v2.3h-1.636a2.037 2.037 0 0 0-2.057 2.158v5.615z" transform="translate(1531.247 5681.777)" style="stroke:transparent;stroke-miterlimit:10;fill:#fff"/>
    </g>
</svg>
